<?xml version="1.0" standalone="no"?>
<!DOCTYPE svg PUBLIC "-//W3C//DTD SVG 20010904//EN"
 "http://www.w3.org/TR/2001/REC-SVG-20010904/DTD/svg10.dtd">
<svg version="1.0" xmlns="http://www.w3.org/2000/svg"
 width="700.000000pt" height="700.000000pt" viewBox="0 0 700.000000 700.000000"
 preserveAspectRatio="xMidYMid meet">
<metadata>
Created by potrace 1.14, written by Peter Selinger 2001-2017
</metadata>
<g transform="translate(0.000000,700.000000) scale(0.100000,-0.100000)"
fill="#000000" stroke="none">
<path d="M895 6980 c-221 -47 -394 -139 -558 -299 -147 -143 -249 -317 -305
-518 l-27 -98 0 -2565 0 -2565 28 -100 c34 -122 118 -297 185 -386 153 -201
369 -347 618 -416 l99 -28 2565 0 2565 0 100 27 c122 34 296 118 389 189 199
150 346 369 414 616 l27 98 0 2565 0 2565 -27 98 c-33 119 -99 261 -167 360
-61 88 -202 227 -290 287 -92 62 -236 127 -348 158 l-98 27 -2540 2 c-2460 2
-2543 1 -2630 -17z m3310 -1530 c380 -62 483 -581 157 -789 -92 -58 -120 -61
-516 -61 -233 0 -375 -4 -401 -11 -52 -15 -110 -74 -124 -127 -8 -29 -11 -204
-9 -585 l3 -543 28 -42 c49 -75 75 -82 316 -82 124 0 221 4 238 11 91 34 138
159 98 256 -31 74 -92 113 -176 113 -92 0 -149 46 -149 120 0 77 55 120 153
120 262 0 462 -238 418 -501 -28 -171 -144 -302 -306 -344 -70 -18 -461 -21
-534 -4 -118 27 -236 124 -289 236 l-27 58 0 625 0 625 32 67 c41 88 113 160
201 201 l67 32 400 5 c395 5 401 5 440 28 121 69 129 253 14 329 l-43 28 -690
0 -691 0 -37 -23 c-20 -13 -47 -40 -60 -60 l-23 -37 -3 -1603 c-1 -1060 1
-1617 8 -1642 18 -67 99 -127 175 -129 86 -2 173 58 194 134 7 26 11 162 11
378 0 381 0 383 72 412 51 20 92 10 129 -32 l30 -35 -3 -391 -3 -392 -32 -67
c-41 -88 -113 -160 -201 -201 -64 -31 -72 -32 -192 -32 -118 0 -128 2 -185 29
-75 37 -163 124 -198 196 -14 30 -31 84 -37 120 -6 43 -10 609 -10 1640 0
1691 -1 1650 50 1751 31 59 110 141 170 173 97 53 121 54 825 55 382 1 675 -3
710 -9z"/>
</g>
</svg>
